<svg xmlns="http://www.w3.org/2000/svg" viewBox="0 0 200 280" width="200" height="280">
  <defs>
    <linearGradient id="bg743574" x1="0" y1="0" x2="0.6" y2="1">
      <stop offset="0%" stop-color="#0c1117"/>
      <stop offset="100%" stop-color="#1c122a"/>
    </linearGradient>
    <linearGradient id="bot743574" x1="0" y1="0" x2="0" y2="1">
      <stop offset="0%" stop-color="rgba(0,0,0,0.52)"/>
      <stop offset="100%" stop-color="rgba(0,0,0,0.88)"/>
    </linearGradient>
    <pattern id="scan743574" width="1" height="3" patternUnits="userSpaceOnUse">
      <rect y="2" width="200" height="1" fill="rgba(0,0,0,0.12)"/>
    </pattern>
  </defs>
  <rect width="200" height="280" fill="url(#bg743574)"/>
  <rect width="200" height="280" fill="url(#scan743574)"/>
  <rect x="92" y="111" width="2" height="2" fill="#3f98f2" opacity="0.55"/>
      <rect x="31" y="76" width="2" height="2" fill="#7b27f1" opacity="0.55"/>
      <rect x="134" y="50" width="2" height="2" fill="#ed82a5" opacity="0.55"/>
      <rect x="118" y="102" width="2" height="2" fill="#aacbed" opacity="0.55"/>
      <rect x="46" y="79" width="2" height="2" fill="#3f98f2" opacity="0.55"/>
      <rect x="143" y="106" width="2" height="2" fill="#7b27f1" opacity="0.55"/>
      <rect x="17" y="73" width="2" height="2" fill="#ed82a5" opacity="0.55"/>
  <rect x="0" y="0" width="200" height="134" fill="rgba(0,0,0,0.22)"/>
  <rect x="61" y="8" width="12" height="12" fill="#3f98f2"/>
      <rect x="126" y="8" width="12" height="12" fill="#3f98f2"/>
      <rect x="87" y="8" width="12" height="12" fill="#aacbed"/>
      <rect x="100" y="8" width="12" height="12" fill="#aacbed"/>
      <rect x="48" y="21" width="12" height="12" fill="#3f98f2"/>
      <rect x="139" y="21" width="12" height="12" fill="#3f98f2"/>
      <rect x="61" y="21" width="12" height="12" fill="#aacbed"/>
      <rect x="126" y="21" width="12" height="12" fill="#aacbed"/>
      <rect x="61" y="34" width="12" height="12" fill="#aacbed"/>
      <rect x="126" y="34" width="12" height="12" fill="#aacbed"/>
      <rect x="48" y="47" width="12" height="12" fill="#aacbed"/>
      <rect x="139" y="47" width="12" height="12" fill="#aacbed"/>
      <rect x="61" y="47" width="12" height="12" fill="#3f98f2"/>
      <rect x="126" y="47" width="12" height="12" fill="#3f98f2"/>
      <rect x="87" y="47" width="12" height="12" fill="#aacbed"/>
      <rect x="100" y="47" width="12" height="12" fill="#aacbed"/>
      <rect x="61" y="60" width="12" height="12" fill="#aacbed"/>
      <rect x="126" y="60" width="12" height="12" fill="#aacbed"/>
      <rect x="74" y="60" width="12" height="12" fill="#aacbed"/>
      <rect x="113" y="60" width="12" height="12" fill="#aacbed"/>
      <rect x="61" y="73" width="12" height="12" fill="#aacbed"/>
      <rect x="126" y="73" width="12" height="12" fill="#aacbed"/>
      <rect x="87" y="73" width="12" height="12" fill="#ed82a5"/>
      <rect x="100" y="73" width="12" height="12" fill="#ed82a5"/>
      <rect x="74" y="86" width="12" height="12" fill="#ed82a5"/>
      <rect x="113" y="86" width="12" height="12" fill="#ed82a5"/>
      <rect x="87" y="86" width="12" height="12" fill="#3f98f2"/>
      <rect x="100" y="86" width="12" height="12" fill="#3f98f2"/>
      <rect x="48" y="99" width="12" height="12" fill="#aacbed"/>
      <rect x="139" y="99" width="12" height="12" fill="#aacbed"/>
      <rect x="61" y="99" width="12" height="12" fill="#ed82a5"/>
      <rect x="126" y="99" width="12" height="12" fill="#ed82a5"/>
      <rect x="87" y="99" width="12" height="12" fill="#aacbed"/>
      <rect x="100" y="99" width="12" height="12" fill="#aacbed"/>
      <rect x="48" y="112" width="12" height="12" fill="#ed82a5"/>
      <rect x="139" y="112" width="12" height="12" fill="#ed82a5"/>
      <rect x="87" y="112" width="12" height="12" fill="#7b27f1"/>
      <rect x="100" y="112" width="12" height="12" fill="#7b27f1"/>
  <rect x="0" y="130" width="200" height="3" fill="#3f98f2" opacity="0.9"/>
  <rect x="0" y="133" width="200" height="1" fill="#7b27f1" opacity="0.4"/>
  <rect x="0" y="134" width="200" height="146" fill="url(#bot743574)"/>
  <rect x="0" y="134" width="5" height="146" fill="#a855f7" opacity="0.88"/>
  <text x="100" y="158" text-anchor="middle" font-family="monospace,sans-serif" font-size="13" font-weight="900" letter-spacing="1" fill="white">STARDUST</text>
  <rect x="12" y="250" width="44" height="18" rx="3" fill="#c084fc" opacity="0.92"/>
  <text x="34" y="263" text-anchor="middle" font-family="monospace" font-size="10" font-weight="700" fill="#000">ATR</text>
  <rect x="134" y="250" width="54" height="18" rx="3" fill="rgba(255,255,255,0.06)" stroke="#3f98f2" stroke-width="1"/>
  <text x="161" y="263" text-anchor="middle" font-family="monospace" font-size="7" fill="#3f98f2" letter-spacing="0.5">HOMEBREW</text>
</svg>